<svg width="327" height="653" viewBox="0 0 327 653" fill="none" xmlns="http://www.w3.org/2000/svg">
<path d="M163.5 0L305.095 239.25H21.9048L163.5 0Z" fill="url(#paint0_linear_20_2)"/>
<path d="M101.531 639.408C102.058 641.652 98.9961 642.859 97.8492 640.86L82.2985 613.749C82.1038 613.409 82.0129 613.02 82.0372 612.629L84.4784 573.354C84.4929 573.12 84.5485 572.89 84.6427 572.675L94.3605 550.497C94.5033 550.172 94.5566 549.813 94.5149 549.46L90.1009 512.067C90.0351 511.509 90.2068 510.949 90.5741 510.524L102.097 497.195C102.359 496.891 102.525 496.515 102.571 496.116L104.55 478.925C104.618 478.339 104.941 477.812 105.434 477.486L115.117 471.082C115.464 470.852 115.731 470.519 115.881 470.131L121.5 455.5L132.708 432.818C132.898 432.435 132.959 432.001 132.884 431.58L129.028 410.017C128.968 409.678 128.996 409.329 129.109 409.004L135.222 391.524C135.4 391.015 135.365 390.456 135.125 389.974L126.187 372L106.421 331.884C105.766 330.555 106.733 329 108.215 329L184.5 329C185.605 329 186.5 329.895 186.5 331V371.522C186.5 371.836 186.426 372.146 186.284 372.426L176.297 392.143C176.104 392.523 176.038 392.955 176.108 393.376L179.858 415.874C179.948 416.419 179.81 416.977 179.475 417.417L165.749 435.403C165.585 435.618 165.466 435.863 165.4 436.126L160.621 455.023C160.541 455.336 160.387 455.626 160.172 455.867L141.814 476.377C141.608 476.608 141.457 476.884 141.376 477.183L135.592 498.32C135.531 498.541 135.433 498.75 135.301 498.939L121.691 518.381C121.565 518.562 121.469 518.763 121.408 518.975L115.7 538.829C115.668 538.943 115.625 539.053 115.573 539.159L102.663 565.397C102.555 565.616 102.488 565.853 102.466 566.096L100.101 591.722C100.084 591.906 100.042 592.087 99.9754 592.259L94.7817 605.703C94.6489 606.046 94.6136 606.42 94.6798 606.783L97.5 622.228L101.531 639.408Z" fill="url(#paint1_linear_20_2)"/>
<path d="M200.821 70.5311C200.821 68.4802 203.54 67.7582 204.558 69.5389L208.821 77L222.112 99.2937C222.984 100.757 221.745 102.571 220.065 102.291L216.703 101.73C215.874 101.592 215.046 101.988 214.633 102.72L208.309 113.929L198.453 133.844C198.277 134.201 198.211 134.601 198.263 134.996L202.657 167.951C202.738 168.56 202.535 169.173 202.105 169.613L190.689 181.306C190.387 181.615 190.193 182.015 190.137 182.445L188.056 198.444L184.821 210.5L181.926 226.422C181.858 226.799 181.682 227.149 181.421 227.429L166.829 243.065C166.563 243.349 166.387 243.704 166.32 244.087L163.696 259.183C163.672 259.317 163.635 259.448 163.585 259.575L157.415 275.2C157.194 275.759 157.236 276.389 157.531 276.914L166.279 292.491C166.374 292.66 166.483 292.805 166.621 292.941C168.809 295.112 188.334 314.961 187.321 331C186.248 347.989 112.169 344.524 105.821 331C99.8523 318.283 105.109 295.657 105.757 293.002C105.8 292.828 105.866 292.667 105.955 292.511L116.006 274.944C116.242 274.532 116.323 274.048 116.235 273.581L112.53 253.9C112.418 253.302 112.584 252.685 112.981 252.224L126.437 236.614C126.75 236.25 126.922 235.787 126.922 235.308L126.922 219.008C126.922 218.675 127.005 218.346 127.164 218.053L137.821 198.444L147.516 172.807C147.711 172.292 148.109 171.88 148.617 171.668L170.284 162.631C170.822 162.406 171.236 161.958 171.416 161.403L176.949 144.361C176.989 144.239 177.041 144.12 177.103 144.007L190.083 120.65C190.176 120.483 190.244 120.304 190.286 120.117L195.772 95.7167C195.805 95.5727 195.821 95.4255 195.821 95.2779V82.5446C195.821 82.188 195.917 81.8379 196.097 81.5306L200.545 73.9694C200.726 73.6621 200.821 73.312 200.821 72.9554V70.5311Z" fill="url(#paint2_linear_20_2)"/>
<defs>
<linearGradient id="paint0_linear_20_2" x1="163.5" y1="0" x2="163.5" y2="319" gradientUnits="userSpaceOnUse">
<stop stop-color="#690000"/>
<stop offset="0.544755"/>
</linearGradient>
<linearGradient id="paint1_linear_20_2" x1="134.25" y1="329" x2="134.25" y2="652.728" gradientUnits="userSpaceOnUse">
<stop stop-color="#606060"/>
<stop offset="0.292272" stop-color="#585858"/>
<stop offset="1" stop-color="#D9D9D9"/>
</linearGradient>
<linearGradient id="paint2_linear_20_2" x1="158.321" y1="332" x2="158.321" y2="44.0001" gradientUnits="userSpaceOnUse">
<stop stop-color="#606060"/>
<stop offset="0.567308"/>
<stop offset="0.875" stop-color="#3F0000"/>
</linearGradient>
</defs>
</svg>
