<svg width="235" height="518" viewBox="0 0 235 518" fill="none" xmlns="http://www.w3.org/2000/svg">
<path d="M88.1586 343.8H144.615L136.868 375.034V406.083V429.511C136.868 430.49 136.663 431.458 136.265 432.353L129.121 448.435L131.616 470.096C131.674 470.602 131.677 471.112 131.624 471.619L129.121 495.77L139.451 518H64.5605L82.8157 500.752L87.6519 484.967C87.9847 483.881 88.0481 482.73 87.8367 481.614L82.8157 455.106L88.1586 425.008L83.3121 402.858C82.9898 401.385 83.1518 399.847 83.7741 398.473L94.392 375.034L88.1586 343.8Z" fill="black"/>
<path d="M116.209 149.478L219.505 348.293H193.681L169.148 339.847C168.421 339.597 167.626 339.635 166.927 339.954L138.941 352.711L116.209 348.293L87.2931 352.711L65.9035 340.153C65.1514 339.711 64.2444 339.619 63.4186 339.899L38.7362 348.293H12.912L116.209 149.478Z" fill="black"/>
<path d="M126.538 94.6697L229.835 268.265L235 288.195V298.16L229.835 318.091L219.505 293.178L211.758 284.009L201.429 290.686L194.721 297.158C194.1 297.756 193.933 298.685 194.306 299.462L198.846 308.922L185.934 298.16L123.956 284.009L38.7363 301.448L45.4458 286.345C45.8153 285.513 44.9719 284.66 44.1361 285.021L30.989 290.686L18.0769 298.16L10.3297 313.108V284.009L20.6593 268.265L18.0769 258.299H10.3297L5.16483 270.756L0 258.299L5.16483 245.843L28.4066 235.878L126.538 94.6697Z" fill="black"/>
<path d="M116.209 29.8957L204.011 169.409L235 189.339H219.506L206.593 194.322L204.011 209.27L211.758 221.726L224.67 224.218L209.772 231.404C209.385 231.591 208.948 231.648 208.526 231.566L193.681 228.711L168.016 219.874L138.942 233.129L116.209 228.711L87.2933 233.129L64.7192 219.874L38.7363 228.711L32.2743 232.396C31.4269 232.879 30.4877 233.18 29.5172 233.279L20.6594 234.183L10.3298 228.711L5.16492 216.744L20.6594 219.874L30.9891 214.252L38.7363 201.796V186.848H30.9891L23.2418 191.831L25.8243 184.357L33.5715 176.883H49.066L116.209 29.8957Z" fill="black"/>
<path d="M49.0658 57.3L43.901 39.8609L44.8612 28.6959C44.9564 27.589 45.5077 26.5716 46.3829 25.8873L78.4488 0.819436C79.1163 0.297651 79.9732 0.0824021 80.808 0.226853L135.05 9.61274C135.762 9.73591 136.405 10.1118 136.862 10.6713L168.177 49.0186L184.536 76.2647C188.248 82.4473 186.612 90.4424 180.769 94.6696V94.6696L175.604 102.144L173.346 110.858C173.182 111.491 173.66 112.109 174.314 112.109H183.991C185.254 112.109 186.485 112.507 187.508 113.248L196.264 119.583L206.593 124.565L216.923 137.022L211.758 151.97L209.176 139.513L201.428 137.022L193.681 142.004V151.97L123.956 184.357L61.9779 151.97L59.3955 142.004L49.0658 139.513L38.7362 142.004L33.5713 154.461L28.4065 144.496L33.5713 129.548L54.4627 120.096L69.7252 97.1609L90.3845 84.7044L100.714 59.7913L92.516 36.3236C92.0954 35.1195 90.9593 34.313 89.6838 34.313H64.7171L54.2307 42.3522L49.0658 57.3Z" fill="black"/>
</svg>
